<!DOCTYPE svg PUBLIC "-//W3C//DTD SVG 1.1//EN" "http://www.w3.org/Graphics/SVG/1.1/DTD/svg11.dtd">
<!-- Uploaded to: SVG Repo, www.svgrepo.com, Transformed by: SVG Repo Mixer Tools -->
<svg width="247px" height="247px" viewBox="-6.4 -6.4 76.80 76.80" xmlns="http://www.w3.org/2000/svg" fill="#ffffff" stroke="#ffffff" stroke-width="0.00064">
<g id="SVGRepo_bgCarrier" stroke-width="0"/>
<g id="SVGRepo_tracerCarrier" stroke-linecap="round" stroke-linejoin="round"/>
<g id="SVGRepo_iconCarrier">
<path d="m33.7 18.3a8.72 8.72 0 0 0 9.7 1.42c3.6-1.72 3.88-6.25 3.92-6.79s-1.46-1-5.17-2.3a32.21 32.21 0 0 1 -6.7-3.41c-.21-.13-1.55.87-2.67 3.29s-1.5 5.62.92 7.79zm.66-5.3c.29-1.63 1.21-3.25 1.59-3.17s2.79 1.38 5.37 2.5 4 1.33 3.92 1.83a7 7 0 0 1 -2.59 3.71c-1.58 1-3.54 1.25-6-.25s-2.58-3.03-2.29-4.62zm6.5 2.58c.5.21.38-.17.67-.46s-.92-1.82-1.42-2.12c0 0-.83.21-.91.46a5 5 0 0 0 1.66 2.09zm-2 1.83c.13.09.71-.25.92-.54s-1.92-3-2-3c-.34.17-.71.17-.88.46s1.84 2.97 1.96 3.05zm-11.79 5.72c-.46.3-3.83 7.8-3.58 8.55s8 4.58 9 4.25 3.87-7.17 4-7.88-9.1-5.12-9.42-4.92zm4.93 11.42c-.13 0-6.92-3.21-7-3.58s2.25-6.17 2.58-6.29 7.63 3.33 7.54 3.7-3.05 6.17-3.12 6.17zm-.95-6.55c-.18.35-.77 1.12.45 2s2.93-1 1.85-2-1.99-.59-2.3 0zm-1.05 3.14c-.15.29-.64.93.37 1.65s2.44-.87 1.54-1.62-1.65-.55-1.91-.03zm4.4 5.2a2.26 2.26 0 0 0 .6 1.17c.21.17.33-.17.54-.5s-.5-1.38-.5-1.38-.59.46-.64.71zm-2.4 1.17a6.56 6.56 0 0 0 1.5 2.21c.2 0 .2-.09.45-.5s-.83-2.17-1-2.29c-.05 0-.95.37-.95.58zm-.63.62a2.66 2.66 0 0 0 -.83.55c-.17.25 2 2.91 2 2.91a2.39 2.39 0 0 0 .5-.75c.11-.37-1.47-2.62-1.72-2.71zm-2.3 1.87c-.21.29 2 3 2.42 3.08s.25 0 .41-.46-2-3.33-2-3.33a4.7 4.7 0 0 0 -.83.71zm-.87 8c-.5-.09-.58-.46-1-.46a1.11 1.11 0 0 0 -.34.71c.05.16.46.21.8.25a2.4 2.4 0 0 1 .87.46c.21.12.25-.3.33-.55s-.16-.36-.66-.41zm-1.46 1.91c-.54-.16-.67-.62-1-.62a.79.79 0 0 0 -.42.83c.13.38.38.21.79.29s.84.46 1.17.55.21-.21.29-.59-.29-.32-.83-.49zm-9.54-7c-.55-.21-.38-.5-.59-.5a1.64 1.64 0 0 0 -.54.7c0 .17.08.21.5.38a3.87 3.87 0 0 0 1 .37c.25 0 .34-.25.42-.45s-.25-.28-.79-.48zm-1.92 1.54c-.67-.21-1-1.35-1.25-1.09s-.63.55-.67.8.13.12.54.2.75.63 1.21 1a1.25 1.25 0 0 0 1.13.29c.29-.08.16-.5.12-.7s-.36-.27-1.08-.48zm41.83-10.82c-1-1.16-5.79-2.08-8.62-3.41a13.45 13.45 0 0 1 -4.09-2.75 14.74 14.74 0 0 0 1.3-2.84c0-.62-3.38-1.62-3.38-1.62s1-.08 3.17-1.75 4.21-4.5 4.25-6.54.91-7.09-4.09-10-9.58-3.29-14 1a10 10 0 0 0 -2.54 9.88s-2.75-1.47-3.11-1.67-.55.33-.55.33a2.63 2.63 0 0 0 -1-.75c-.5-.13-.79.67-.79.67a3.66 3.66 0 0 0 -1.17-.59c-.33 0-1 1-1 1a2.86 2.86 0 0 1 -.79-.54c-.25-.29 3.54-8.25 3.67-8.54s-.75-.71-1.33-.33-3.93 8.82-3.72 9.37 1.67.92 1.67.92a12.33 12.33 0 0 1 -.25 1.29c-.09.17-.21.12-1.5-.38s-1.54-1.38-2.67-2.5-3.64-4.12-4.46-4.2a6.59 6.59 0 0 0 -3.25.5 5.7 5.7 0 0 0 -3 2.75c-.37 1.08.67 1.87 1.92 3.91a79.39 79.39 0 0 0 4.62 7c.59.5 2.63.34 3.59.34a13.5 13.5 0 0 1 3.66 1.12c.3.17 0 1.33-1.7 4.33s-4.13 7.67-4.84 8.59a18.31 18.31 0 0 0 -2.11 3.87c-.59 1.42-3.84 6.63-4.13 7.34a3.33 3.33 0 0 0 0 2.29c.25.75 2.13 2.71 4.46 3.66s4.67.71 5.67-1 5.2-11.16 5.45-11.7 2-.34 2.25 0-.2 1-1.12 3.29-4.67 9.46-5.08 10.62.83 2 1.54 2.5 5.12 2.42 6 2.34 1.87-1.84 2.91-3.25 3.16-6.88 3.62-8.18a76.88 76.88 0 0 1 3.67-7.63 39.43 39.43 0 0 1 4-6.54c.54-.46 1 1 1.75 1.33a17.12 17.12 0 0 0 3.12 1.09c1.71.5 2.79 1.71 6 3.08s5.13 1.08 6.42-1.5a5.63 5.63 0 0 0 -.42-6.2zm-12.87-8.7c-.09.37 0 1.29-.42 1.12s-1.29-2-1.37-2 1.87.5 1.79.88zm-12.24-15.8a7.82 7.82 0 0 1 5.62-4.29c2.86-.54 5.92.79 8.29 2.5s2.8 5.5 1.84 8.29-3.55 5.5-6.75 5.75-6-.29-8.34-2.7-1.66-7.55-.66-9.55zm-5.88 6.34c.27-.21 2.92 1.16 3.17 1.46s.62.83.42.87-2.13.08-2.84.13-1.46 0-1.41-.17a10.72 10.72 0 0 1 .65-2.29zm-1.71-.71s.71.17.63.33-.5 2.42-.71 2.38-.5 0-.54-.17.61-2.54.61-2.54zm-2.71 2.24a16.21 16.21 0 0 1 .79-2.13c.3 0 .46 0 .37.46s-.37 2-.54 1.92-.71-.12-.62-.25zm-11.13.71c-.25-.3-2.5-3.8-2.42-4.38s1.09-1.92 3.38-1.54a2.78 2.78 0 0 1 1.37 1c.46.58 1.71 2 1.34 2.25s-2.09 1.29-2.71 1.79-.71 1.17-.96.85zm4.17 35.87c-.71.46-1.38.5-3.21-.46s-2.67-1.61-2.53-2.57 2-4 2.33-4.33 1.08-.25 1.25.21.21 2.12 1.08 2.37 1.17-.58 1.71-.17.67.92 1 1 .75.12.71.29-1.63 3.17-2.34 3.63zm3.54-5.79c-.29.62-.67 1.29-.67 1.29s-.12.25-.5-.25-1.11-1.4-1.46-1.4-.91.5-1.37.16-1.17-2.08-1.67-2.21-.87.13-.87-.16a52.35 52.35 0 0 1 2.66-5.29c.14-.17 1.38.75 1.92 1.12a2.39 2.39 0 0 0 1.21.63 2.33 2.33 0 0 1 1.21.62c.37.29 1.46.71 1.33.92s-1.5 3.91-1.79 4.54zm7.46 11.46a34.19 34.19 0 0 1 -3.5-1.25c-1-.42-1.38-.92-1.29-1.29a44.9 44.9 0 0 1 2.05-5.08c.27-.26.25.75 1 .8s1.08-.17 1.63 0 .66.91 1.54 1.08 1.62.33 1.58.5-2.68 5.25-3.01 5.21zm3.58-6.63a5 5 0 0 1 -2.25-.46c-.42-.33-.79-1.16-1.37-1.08a4.68 4.68 0 0 1 -1.5 0c-.42-.08-.75-.12-.63-.54s2.29-4.79 2.67-4.88a6.93 6.93 0 0 1 2.12.8c.88.45 1 1 1.71 1.33s1.08.21 1.08.54-1.5 4.22-1.83 4.26zm19-15.21c-.42-.08-3.79-1.45-4.25-1.66s-.79-.09-1.33-.75-1.5-2.54-2.17-2.59a1.39 1.39 0 0 0 -1.37.59c-.21.37-2.8 4.08-3.59 5.54s-2.66 6.25-3.16 7-.71 1.71-.92 1.58a32.79 32.79 0 0 0 -3-1.87c-.37-.09-2.17-.54-2.08-.75s1.33-2.42.54-3a17.75 17.75 0 0 0 -4.42-1.38c-.5-.12-1.87 2.18-1.87 2.18a34.93 34.93 0 0 0 -3.17-2.17c-1-.54-2.71-.87-2.63-1.16s4.34-8 5.42-9.84 2.42-4.29 1.46-4.79a27.66 27.66 0 0 0 -5.38-1.58 5.23 5.23 0 0 1 -2.25-.17c-.45-.29-3-3.5-2.79-4.08a11.11 11.11 0 0 1 3.46-2.51c.23 0 1.71 1.92 4.25 2.62a28.38 28.38 0 0 0 6.71 1.42c2 0 4.67-.21 5-.08s0 1.37 3.5 2.54a21.44 21.44 0 0 0 5.5 1c.17.17 2.17 4.71 3.38 5.92s7 3.41 6.79 3.79a35 35 0 0 0 -1.29 3.46c-.09.51.08.8-.34.71zm7.17 1.55c-.49.92-.79 1.04-1.42 1.04a17 17 0 0 1 -4.21-1.83c-.25-.3 1-4.3 1.38-4.46.17-.08 3.91 1 4.5 1.75s.26 2.54-.25 3.47z" fill="#ffffff"/>
</g>
</svg>