<!DOCTYPE svg PUBLIC "-//W3C//DTD SVG 1.1//EN" "http://www.w3.org/Graphics/SVG/1.1/DTD/svg11.dtd">
<!-- Uploaded to: SVG Repo, www.svgrepo.com, Transformed by: SVG Repo Mixer Tools -->
<svg fill="#ffffff" height="256px" width="256px" version="1.1" id="Layer_1" xmlns="http://www.w3.org/2000/svg" xmlns:xlink="http://www.w3.org/1999/xlink" viewBox="0 0 499.696 499.696" xml:space="preserve" stroke="#ffffff">
<g id="SVGRepo_bgCarrier" stroke-width="0"/>
<g id="SVGRepo_tracerCarrier" stroke-linecap="round" stroke-linejoin="round" stroke="#24c9cc" stroke-width="0.9993920000000001"/>
<g id="SVGRepo_iconCarrier"> <g> <g> <path d="M386.386,121.012H113.318c-2.208,0-4,1.788-4,4c0,2.212,1.792,4,4,4h273.068c2.208,0,4-1.788,4-4 C390.386,122.8,388.594,121.012,386.386,121.012z"/> </g> </g> <g> <g> <path d="M156.23,160.02h-42.912c-2.208,0-4,1.788-4,4c0,2.212,1.792,4,4,4h42.908c2.208,0,4.004-1.788,4.004-4 C160.23,161.808,158.438,160.02,156.23,160.02z"/> </g> </g> <g> <g> <path d="M386.386,160.02H191.338c-2.208,0-4,1.788-4,4c0,2.212,1.792,4,4,4h195.048c2.208,0,4-1.788,4-4 C390.386,161.808,388.594,160.02,386.386,160.02z"/> </g> </g> <g> <g> <path d="M386.386,199.032H343.47c-2.208,0-4,1.788-4,4c0,2.212,1.792,4,4,4h42.916c2.208,0,4-1.788,4-4 C390.386,200.82,388.594,199.032,386.386,199.032z"/> </g> </g> <g> <g> <path d="M308.366,199.032H113.318c-2.208,0-4,1.788-4,4c0,2.212,1.792,4,4,4h195.048c2.208,0,4-1.788,4-4 C312.366,200.82,310.574,199.032,308.366,199.032z"/> </g> </g> <g> <g> <path d="M386.386,82H343.47c-2.208,0-4,1.788-4,4s1.792,4,4,4h42.916c2.208,0,4-1.788,4-4S388.594,82,386.386,82z"/> </g> </g> <g> <g> <path d="M308.366,82H113.318c-2.208,0-4,1.788-4,4s1.792,4,4,4h195.048c2.208,0,4-1.788,4-4S310.574,82,308.366,82z"/> </g> </g> <g> <g> <path d="M386.386,238.04H113.318c-2.208,0-4,1.788-4,4c0,2.212,1.792,4,4,4h273.068c2.208,0,4-1.788,4-4 C390.386,239.828,388.594,238.04,386.386,238.04z"/> </g> </g> <g> <g> <path d="M386.386,355.068H113.318c-2.208,0-4,1.788-4,4c0,2.212,1.792,4,4,4h273.068c2.208,0,4-1.788,4-4 C390.386,356.856,388.594,355.068,386.386,355.068z"/> </g> </g> <g> <g> <path d="M156.23,277.052h-42.912c-2.208,0-4,1.788-4,4c0,2.212,1.792,4,4,4h42.908c2.208,0,4.004-1.788,4.004-4 C160.23,278.84,158.438,277.052,156.23,277.052z"/> </g> </g> <g> <g> <path d="M386.386,277.052H191.338c-2.208,0-4,1.788-4,4c0,2.212,1.792,4,4,4h195.048c2.208,0,4-1.788,4-4 C390.386,278.84,388.594,277.052,386.386,277.052z"/> </g> </g> <g> <g> <path d="M386.386,316.06H343.47c-2.208,0-4,1.788-4,4c0,2.212,1.792,4,4,4h42.916c2.208,0,4-1.788,4-4 C390.386,317.848,388.594,316.06,386.386,316.06z"/> </g> </g> <g> <g> <path d="M308.366,316.06H113.318c-2.208,0-4,1.788-4,4c0,2.212,1.792,4,4,4h195.048c2.208,0,4-1.788,4-4 C312.366,317.848,310.574,316.06,308.366,316.06z"/> </g> </g> <g> <g> <path d="M156.23,394.08h-42.912c-2.208,0-4,1.788-4,4c0,2.212,1.792,4,4,4h42.908c2.208,0,4.004-1.788,4.004-4 C160.23,395.868,158.438,394.08,156.23,394.08z"/> </g> </g> <g> <g> <path d="M386.386,394.08H191.338c-2.208,0-4,1.788-4,4c0,2.212,1.792,4,4,4h195.048c2.208,0,4-1.788,4-4 C390.386,395.868,388.594,394.08,386.386,394.08z"/> </g> </g> <g> <g> <path d="M433.194,31.384c-2.208,0-4,1.788-4,4v429.104c0,2.212,1.792,4,4,4s4-1.788,4-4V35.384 C437.194,33.172,435.402,31.384,433.194,31.384z"/> </g> </g> <g> <g> <path d="M66.502,31.384c-2.208,0-4,1.788-4,4V433.28c0,2.212,1.792,4,4,4s4-1.788,4-3.996v-397.9 C70.502,33.172,68.71,31.384,66.502,31.384z"/> </g> </g> <g> <g> <path d="M433.194,460.488c-2.208,0-4,1.788-4,4c0,15.004-12.204,27.208-27.208,27.208c-15.004,0-27.208-12.424-27.208-27.688 V433.28c0-2.212-1.792-4-4-4s-4,1.788-4,4v30.728c0,19.68,15.792,35.688,35.208,35.688s35.208-15.792,35.208-35.208 C437.194,462.276,435.402,460.488,433.194,460.488z"/> </g> </g> <g> <g> <path d="M464.694,0c-19.576,0-35.504,15.872-35.504,35.384c0,2.212,1.792,4,4,4s4-1.788,4-4C437.19,20.284,449.526,8,464.694,8 c15.092,0,26.916,11.82,26.916,26.904v31.688c0,2.212,1.792,4,4,4c2.212,0,4-1.792,4-4V34.904C499.61,15.332,484.274,0,464.694,0z "/> </g> </g> <g> <g> <path d="M97.714,0.176c-19.416,0-35.212,15.792-35.212,35.208c0,2.212,1.792,4,4,4s4-1.788,4-4 c0-15.004,12.208-27.208,27.212-27.208c2.208,0,4-1.788,4-4C101.714,1.964,99.922,0.176,97.714,0.176z"/> </g> </g> <g> <g> <path d="M35.294,491.696c-15.004,0-27.208-12.424-27.208-27.688V433.28c0-2.212-1.792-4-4-4s-4,1.788-4,4v30.728 c0,19.68,15.792,35.688,35.208,35.688c2.212,0,4-1.788,4-4S37.502,491.696,35.294,491.696z"/> </g> </g> <g> <g> <path d="M370.782,429.28H4.09c-2.208,0-4,1.788-4,4c0,2.212,1.792,4,4,4h366.688c2.212,0,4.004-1.788,4.004-4 C374.782,431.068,372.99,429.28,370.782,429.28z"/> </g> </g> <g> <g> <path d="M401.986,491.696H35.294c-2.208,0-4,1.788-4,4c0,2.212,1.792,4,4,4h366.692c2.208,0,4-1.788,4-4 C405.986,493.484,404.194,491.696,401.986,491.696z"/> </g> </g> <g> <g> <path d="M464.402,0.176H97.714c-2.208,0-4,1.788-4,4c0,2.212,1.792,4,4,4h366.688c2.208,0,4-1.788,4-4 C468.402,1.964,466.61,0.176,464.402,0.176z"/> </g> </g> <g> <g> <path d="M495.61,62.592h-62.416c-2.208,0-4,1.788-4,4c0,2.212,1.792,4,4,4h62.416c2.212,0,4-1.788,4-4 C499.61,64.38,497.818,62.592,495.61,62.592z"/> </g> </g> </g>
</svg>